<?xml version="1.0" standalone="no"?><!DOCTYPE svg PUBLIC "-//W3C//DTD SVG 1.1//EN" "http://www.w3.org/Graphics/SVG/1.1/DTD/svg11.dtd"><svg t="1653811285895" class="icon" viewBox="0 0 1024 1024" version="1.1" xmlns="http://www.w3.org/2000/svg" p-id="2298" xmlns:xlink="http://www.w3.org/1999/xlink" width="200" height="200"><defs><style type="text/css"></style></defs><path d="M809.984 84.845714c70.582857 0 127.707429 57.197714 127.707429 127.707429v600.795428c0 70.582857-57.124571 127.780571-127.707429 127.780572H212.114286a127.707429 127.707429 0 0 1-127.707429-127.780572V212.553143c0-70.509714 57.197714-127.707429 127.707429-127.707429h597.869714z m0 102.180572H212.114286a25.6 25.6 0 0 0-25.234286 21.430857l-0.292571 4.096v600.795428a25.6 25.6 0 0 0 21.357714 25.234286l4.169143 0.365714h597.869714a25.6 25.6 0 0 0 25.234286-21.430857l0.365714-4.169143V212.553143a25.6 25.6 0 0 0-21.430857-25.161143l-4.169143-0.365714zM388.681143 495.177143a24.064 24.064 0 0 0-24.064-24.064h-32.036572a24.064 24.064 0 0 0-24.064 24.137143v172.251428c0 13.238857 10.825143 23.990857 24.137143 23.990857h31.963429a24.064 24.064 0 0 0 24.064-23.990857V495.177143zM524.946286 315.977143c13.238857 0 23.990857 10.752 23.990857 23.990857v327.606857a24.064 24.064 0 0 1-23.990857 23.990857h-32.109715a24.064 24.064 0 0 1-23.990857-23.990857V339.894857c0-13.238857 10.752-23.990857 23.990857-23.990857h32.109715z m184.32 131.218286a24.064 24.064 0 0 0-24.137143-24.064H653.165714a24.064 24.064 0 0 0-24.137143 24.064v220.379428c0 13.238857 10.825143 23.990857 24.137143 23.990857h32.036572a24.064 24.064 0 0 0 24.064-23.990857V447.122286z" p-id="2299" fill="#1296db"></path></svg>