<?xml version="1.0" standalone="no"?><!DOCTYPE svg PUBLIC "-//W3C//DTD SVG 1.1//EN" "http://www.w3.org/Graphics/SVG/1.1/DTD/svg11.dtd"><svg t="1653533973332" class="icon" viewBox="0 0 1024 1024" version="1.1" xmlns="http://www.w3.org/2000/svg" p-id="1646" xmlns:xlink="http://www.w3.org/1999/xlink" width="200" height="200"><defs><style type="text/css"></style></defs><path d="M924.634 356.34V779a72.818 72.818 0 0 1-72.817 72.818H172.183a72.818 72.818 0 0 1-72.817-72.818v-422.66l72.817 61.726V779h679.634V418.065l72.817-61.724z m-72.817-184.157a73.717 73.717 0 0 1 25.97 4.759 72.38 72.38 0 0 1 30.487 22.087 73.182 73.182 0 0 1 10.632 17.598 72.45 72.45 0 0 1 5.583 24.103l0.145 4.271v24.273L559.26 580.934a72.818 72.818 0 0 1-90.9 2.888l-3.618-2.912L99.367 269.274v-24.273A72.575 72.575 0 0 1 139.343 180a72.672 72.672 0 0 1 32.84-7.817h679.634z m-10.923 72.818H183.106L512 525.521 840.894 245z" p-id="1647" fill="#1296db"></path></svg>